{
  "accessors": [
    {
      "bufferView": 1,
      "componentType": 5126,
      "count": 3420,
      "max": [
        5.478587627410889,
        -0.387107253074646,
        2.5639731884002686
      ],
      "min": [
        2.9717800617218018,
        -2.7970263957977295,
        -2.53481388092041
      ],
      "type": "VEC3"
    },
    {
      "bufferView": 1,
      "byteOffset": 41040,
      "componentType": 5126,
      "count": 3420,
      "max": [
        0.9996859431266785,
        0.9999999403953552,
        0.999866783618927
      ],
      "min": [
        -0.9996858239173889,
        -0.9999982118606567,
        -0.9999949336051941
      ],
      "type": "VEC3"
    },
    {
      "bufferView": 0,
      "componentType": 5125,
      "count": 19848,
      "type": "SCALAR"
    }
  ],
  "asset": {
    "extras": {
      "author": "gensyuuu (https://sketchfab.com/gensyuuu)",
      "license": "CC-BY-4.0 (http://creativecommons.org/licenses/by/4.0/)",
      "source": "https://sketchfab.com/3d-models/chibi-base-mesh-39ba45ab58244102a024ea51e3854b90",
      "title": "CHIBI Base mesh"
    },
    "generator": "Sketchfab-12.67.0",
    "version": "2.0"
  },
  "bufferViews": [
    {
      "buffer": 0,
      "byteLength": 79392,
      "name": "floatBufferViews",
      "target": 34963
    },
    {
      "buffer": 0,
      "byteLength": 82080,
      "byteOffset": 79392,
      "byteStride": 12,
      "name": "floatBufferViews",
      "target": 34962
    }
  ],
  "buffers": [
    {
      "byteLength": 161472,
      "uri": "scene.bin"
    }
  ],
  "materials": [
    {
      "doubleSided": true,
      "name": "material_0",
      "pbrMetallicRoughness": {
        "metallicFactor": 0.0,
        "roughnessFactor": 0.6
      }
    }
  ],
  "meshes": [
    {
      "name": "Object_0",
      "primitives": [
        {
          "attributes": {
            "NORMAL": 1,
            "POSITION": 0
          },
          "indices": 2,
          "material": 0,
          "mode": 4
        }
      ]
    }
  ],
  "nodes": [
    {
      "children": [
        1
      ],
      "matrix": [
        1.0,
        0.0,
        0.0,
        0.0,
        0.0,
        2.220446049250313e-16,
        -1.0,
        0.0,
        0.0,
        1.0,
        2.220446049250313e-16,
        0.0,
        0.0,
        0.0,
        0.0,
        1.0
      ],
      "name": "Sketchfab_model"
    },
    {
      "children": [
        2
      ],
      "name": "8b5ab32d52264427acbeb2bcc504b8af.obj.cleaner.materialmerger.gles"
    },
    {
      "mesh": 0,
      "name": "Object_2"
    }
  ],
  "scene": 0,
  "scenes": [
    {
      "name": "Sketchfab_Scene",
      "nodes": [
        0
      ]
    }
  ]
}
